<svg width="36" height="36" viewBox="0 0 36 36" fill="none" xmlns="http://www.w3.org/2000/svg">
<rect width="36" height="36" rx="4" fill="#E7EFFF"/>
<path d="M19.4419 7.67341C19.3494 7.59654 19.2398 7.54303 19.1224 7.51738C19.0049 7.49174 18.883 7.49471 18.7669 7.52605C18.6508 7.55739 18.544 7.61618 18.4554 7.69746C18.3668 7.77875 18.299 7.88014 18.2578 7.9931L16.1953 13.6565L13.9303 11.4618C13.8542 11.3881 13.7634 11.3312 13.6638 11.2951C13.5642 11.259 13.458 11.2444 13.3523 11.2523C13.2467 11.2602 13.1439 11.2904 13.0507 11.3409C12.9576 11.3914 12.8762 11.461 12.8119 11.5453C10.7813 14.2059 9.75 16.8825 9.75 19.5C9.75 21.688 10.6192 23.7864 12.1664 25.3336C13.7135 26.8808 15.812 27.75 18 27.75C20.188 27.75 22.2865 26.8808 23.8336 25.3336C25.3808 23.7864 26.25 21.688 26.25 19.5C26.25 13.9265 21.4884 9.37497 19.4419 7.67341ZM23.2397 20.3756C23.0452 21.4619 22.5226 22.4625 21.7422 23.2428C20.9618 24.023 19.961 24.5454 18.8747 24.7397C18.8335 24.7467 18.7918 24.7502 18.75 24.75C18.5619 24.7499 18.3806 24.6792 18.2422 24.5518C18.1038 24.4243 18.0183 24.2495 18.0028 24.0621C17.9872 23.8746 18.0426 23.6881 18.1581 23.5396C18.2736 23.3911 18.4407 23.2914 18.6262 23.2603C20.1797 22.9987 21.4978 21.6806 21.7612 20.1243C21.7946 19.9282 21.9045 19.7533 22.0667 19.6381C22.229 19.5229 22.4304 19.477 22.6266 19.5103C22.8227 19.5436 22.9976 19.6535 23.1128 19.8158C23.228 19.978 23.2739 20.1794 23.2406 20.3756H23.2397Z" fill="#F47960"/>
</svg>
