<svg width="44" height="44" viewBox="0 0 44 44" fill="none" xmlns="http://www.w3.org/2000/svg">
<circle cx="22" cy="22" r="22" fill="#1D4184"/>
<path d="M32.6668 19.3333C32.6668 18.9797 32.5263 18.6406 32.2763 18.3905C32.0262 18.1405 31.6871 18 31.3334 18C30.9798 18 30.6407 18.1405 30.3906 18.3905C30.1406 18.6406 30.0001 18.9797 30.0001 19.3333H32.6668ZM14.0001 19.3333C14.0001 18.9797 13.8596 18.6406 13.6096 18.3905C13.3595 18.1405 13.0204 18 12.6668 18C12.3132 18 11.974 18.1405 11.724 18.3905C11.4739 18.6406 11.3334 18.9797 11.3334 19.3333H14.0001ZM33.0574 22.9426C33.3089 23.1855 33.6457 23.3199 33.9953 23.3169C34.3449 23.3138 34.6793 23.1736 34.9265 22.9264C35.1737 22.6792 35.314 22.3448 35.317 21.9952C35.32 21.6456 35.1857 21.3088 34.9428 21.0573L33.0574 22.9426ZM22.0001 9.99998L22.9428 9.05731C22.6927 8.80735 22.3537 8.66693 22.0001 8.66693C21.6466 8.66693 21.3075 8.80735 21.0574 9.05731L22.0001 9.99998ZM9.05744 21.0573C8.93009 21.1803 8.82852 21.3274 8.75864 21.4901C8.68876 21.6528 8.65198 21.8277 8.65044 22.0048C8.6489 22.1818 8.68264 22.3574 8.74968 22.5213C8.81672 22.6851 8.91572 22.834 9.04091 22.9592C9.16611 23.0844 9.31497 23.1834 9.47884 23.2504C9.6427 23.3174 9.81827 23.3512 9.99531 23.3496C10.1723 23.3481 10.3473 23.3113 10.51 23.2414C10.6727 23.1716 10.8198 23.07 10.9428 22.9426L9.05744 21.0573ZM15.3334 35.3333H28.6668V32.6666H15.3334V35.3333ZM32.6668 31.3333V19.3333H30.0001V31.3333H32.6668ZM14.0001 31.3333V19.3333H11.3334V31.3333H14.0001ZM34.9428 21.0573L22.9428 9.05731L21.0574 10.9426L33.0574 22.9426L34.9428 21.0573ZM21.0574 9.05731L9.05744 21.0573L10.9428 22.9426L22.9428 10.9426L21.0574 9.05731ZM28.6668 35.3333C29.7276 35.3333 30.7451 34.9119 31.4952 34.1617C32.2453 33.4116 32.6668 32.3942 32.6668 31.3333H30.0001C30.0001 31.6869 29.8596 32.0261 29.6096 32.2761C29.3595 32.5262 29.0204 32.6666 28.6668 32.6666V35.3333ZM15.3334 32.6666C14.9798 32.6666 14.6407 32.5262 14.3906 32.2761C14.1406 32.0261 14.0001 31.6869 14.0001 31.3333H11.3334C11.3334 32.3942 11.7549 33.4116 12.505 34.1617C13.2552 34.9119 14.2726 35.3333 15.3334 35.3333V32.6666Z" fill="white"/>
</svg>
