<svg width="36" height="36" viewBox="0 0 36 36" fill="none" xmlns="http://www.w3.org/2000/svg">
<rect width="36" height="36" rx="4" fill="#E7EFFF"/>
<g clip-path="url(#clip0_7_7271)">
<path fill-rule="evenodd" clip-rule="evenodd" d="M17.9947 6.01542C16.8308 5.99916 15.6752 6.21437 14.5951 6.64855C13.515 7.08274 12.532 7.72724 11.7031 8.5446C10.8743 9.36196 10.2161 10.3359 9.76688 11.4098C9.31765 12.4837 9.08631 13.6362 9.08631 14.8003C9.08631 15.9644 9.31765 17.1168 9.76688 18.1907C10.2161 19.2647 10.8743 20.2386 11.7031 21.0559C12.532 21.8733 13.515 22.5178 14.5951 22.952C15.6752 23.3862 16.8308 23.6014 17.9947 23.5851C20.3249 23.5851 22.5595 22.6595 24.2072 21.0119C25.8548 19.3642 26.7805 17.1295 26.7805 14.7994C26.7805 12.4693 25.8548 10.2346 24.2072 8.58698C22.5595 6.93934 20.3249 6.01542 17.9947 6.01542ZM18.3427 10.1691L19.5136 12.5246C19.5396 12.584 19.581 12.6354 19.6334 12.6737C19.6858 12.7119 19.7474 12.7356 19.8119 12.7423L22.4107 13.1366C22.4852 13.1461 22.5553 13.1766 22.613 13.2246C22.6707 13.2726 22.7134 13.3361 22.7363 13.4075C22.7591 13.479 22.7611 13.5555 22.742 13.628C22.7229 13.7006 22.6835 13.7662 22.6285 13.8171L20.7119 15.6411C20.6834 15.6956 20.6685 15.7562 20.6685 15.8177C20.6685 15.8792 20.6834 15.9398 20.7119 15.9943L21.0787 18.5794C21.0942 18.6539 21.0878 18.7312 21.0603 18.802C21.0328 18.8729 20.9854 18.9343 20.9238 18.9789C20.8622 19.0235 20.789 19.0493 20.7131 19.0532C20.6372 19.0572 20.5618 19.0391 20.4959 19.0011L18.1816 17.7771C18.1216 17.7499 18.0564 17.7358 17.9905 17.7358C17.9245 17.7358 17.8594 17.7499 17.7993 17.7771L15.485 19.0011C15.4192 19.0391 15.3437 19.0572 15.2678 19.0532C15.1919 19.0493 15.1187 19.0235 15.0571 18.9789C14.9955 18.9343 14.9481 18.8729 14.9206 18.802C14.8932 18.7312 14.8867 18.6539 14.9022 18.5794L15.3359 15.9943C15.3545 15.9343 15.3579 15.8707 15.346 15.8091C15.334 15.7475 15.307 15.6898 15.2673 15.6411L13.349 13.8034C13.2975 13.752 13.2612 13.6873 13.2442 13.6165C13.2272 13.5457 13.2302 13.4715 13.2527 13.4023C13.2753 13.3331 13.3165 13.2714 13.372 13.2242C13.4274 13.177 13.4948 13.1461 13.5667 13.1348L16.1673 12.756C16.2318 12.7493 16.2935 12.7256 16.3459 12.6874C16.3983 12.6492 16.4396 12.5977 16.4656 12.5383L17.6365 10.1828C17.6676 10.116 17.7169 10.0592 17.7787 10.019C17.8406 9.97875 17.9124 9.95666 17.9862 9.95523C18.0599 9.9538 18.1326 9.97309 18.1959 10.0109C18.2593 10.0487 18.3107 10.1035 18.3445 10.1691H18.3427ZM27.0856 20.8628C25.6081 23.0769 23.3745 24.6767 20.8027 25.3628L23.2233 29.556C23.308 29.7028 23.4343 29.8213 23.5863 29.8963C23.7383 29.9714 23.9091 29.9997 24.0772 29.9777C24.2453 29.9557 24.403 29.8843 24.5305 29.7726C24.6581 29.6609 24.7496 29.514 24.7936 29.3503L25.6679 26.0948L28.9216 26.9674C29.0853 27.0111 29.2583 27.0053 29.4187 26.9507C29.5791 26.8962 29.7198 26.7953 29.8229 26.6608C29.926 26.5263 29.9869 26.3643 29.9979 26.1952C30.009 26.0262 29.9697 25.8576 29.885 25.7108L27.0856 20.8628ZM15.1953 25.3646C12.6233 24.681 10.3884 23.0837 8.90903 20.8714L6.11475 25.7108C6.03006 25.8576 5.99076 26.0262 6.00183 26.1952C6.0129 26.3643 6.07383 26.5263 6.17692 26.6608C6.28002 26.7953 6.42066 26.8962 6.58107 26.9507C6.74148 27.0053 6.91447 27.0111 7.07818 26.9674L10.3336 26.0948L11.2062 29.3503C11.2502 29.514 11.3417 29.6609 11.4692 29.7726C11.5968 29.8843 11.7545 29.9557 11.9226 29.9777C12.0907 29.9997 12.2615 29.9714 12.4135 29.8963C12.5655 29.8213 12.6918 29.7028 12.7765 29.556L15.1953 25.3646Z" fill="#F47960"/>
</g>
<defs>
<clipPath id="clip0_7_7271">
<rect width="24" height="24" fill="white" transform="translate(6 6)"/>
</clipPath>
</defs>
</svg>
