<svg width="32" height="32" viewBox="0 0 32 32" fill="none" xmlns="http://www.w3.org/2000/svg">
<path fill-rule="evenodd" clip-rule="evenodd" d="M20.0277 26.2632C20.028 26.9536 19.7721 27.6187 19.3115 28.125C18.8509 28.6313 18.2195 28.9414 17.544 28.9932L17.3427 29H14.6576C13.9801 29.0002 13.3277 28.7394 12.831 28.27C12.3342 27.8005 12.03 27.1569 11.9792 26.4684L11.9725 26.2632H20.0277ZM16.0001 3C18.4368 2.99996 20.7782 3.96459 22.5306 5.69042C24.2829 7.41624 25.309 9.76833 25.3926 12.2505L25.3979 12.5789V17.7297L27.844 22.7162C27.9508 22.9338 28.0042 23.1745 27.9997 23.4177C27.9953 23.661 27.933 23.8994 27.8183 24.1128C27.7036 24.3261 27.5399 24.508 27.3412 24.6427C27.1425 24.7775 26.9147 24.8611 26.6774 24.8865L26.523 24.8947H5.47724C5.23848 24.8948 5.00327 24.8359 4.79176 24.723C4.58025 24.6101 4.39874 24.4466 4.26279 24.2466C4.12684 24.0465 4.04051 23.8159 4.01118 23.5744C3.98186 23.3328 4.01042 23.0877 4.09441 22.8599L4.15617 22.7162L6.60229 17.7297V12.5789C6.60229 10.0385 7.59241 7.60201 9.35485 5.80561C11.1173 4.00921 13.5076 3 16.0001 3ZM16.0001 5.73684C14.2703 5.73694 12.6073 6.41769 11.3579 7.63711C10.1085 8.85654 9.36917 10.5205 9.29409 12.282L9.28738 12.5789V17.7297C9.28739 18.0691 9.22548 18.4055 9.10479 18.7218L9.0041 18.9544L7.43332 22.1579H24.5682L22.9974 18.9531C22.8484 18.6496 22.756 18.3207 22.7249 17.9828L22.7128 17.7297V12.5789C22.7128 10.7643 22.0056 9.02399 20.7467 7.74085C19.4878 6.4577 17.7804 5.73684 16.0001 5.73684Z" fill="black"/>
<circle cx="24" cy="8" r="8" fill="#F47960"/>
<path d="M25.3253 3.27273V12H23.7443V4.81108H23.6932L21.652 6.11506V4.66619L23.821 3.27273H25.3253Z" fill="black"/>
</svg>
